<mxfile host="65bd71144e">
    <diagram id="9diC8L49yvYmecdLorfI" name="Page-1">
        <mxGraphModel dx="1893" dy="923" grid="0" gridSize="8" guides="1" tooltips="1" connect="1" arrows="1" fold="1" page="0" pageScale="1" pageWidth="827" pageHeight="1169" background="none" math="0" shadow="0">
            <root>
                <mxCell id="0"/>
                <mxCell id="1" parent="0"/>
                <mxCell id="117" value="" style="edgeStyle=orthogonalEdgeStyle;html=1;fontSize=14;exitX=0.5;exitY=1;exitDx=0;exitDy=0;" edge="1" parent="1" source="113" target="115">
                    <mxGeometry relative="1" as="geometry"/>
                </mxCell>
                <mxCell id="119" style="edgeStyle=orthogonalEdgeStyle;html=1;exitX=0.5;exitY=1;exitDx=0;exitDy=0;entryX=0.5;entryY=0;entryDx=0;entryDy=0;fontSize=14;" edge="1" parent="1" source="113" target="116">
                    <mxGeometry relative="1" as="geometry"/>
                </mxCell>
                <mxCell id="130" style="edgeStyle=orthogonalEdgeStyle;html=1;exitX=0.5;exitY=1;exitDx=0;exitDy=0;fontSize=14;" edge="1" parent="1" source="113" target="114">
                    <mxGeometry relative="1" as="geometry"/>
                </mxCell>
                <mxCell id="113" value="&lt;font style=&quot;font-size: 14px&quot;&gt;用户&lt;/font&gt;" style="whiteSpace=wrap;html=1;labelBackgroundColor=none;labelBorderColor=none;rounded=1;sketch=1;glass=0;shadow=1;" vertex="1" parent="1">
                    <mxGeometry x="-141" y="-172" width="120" height="60" as="geometry"/>
                </mxCell>
                <mxCell id="125" style="edgeStyle=orthogonalEdgeStyle;html=1;exitX=0.5;exitY=1;exitDx=0;exitDy=0;entryX=0;entryY=0.5;entryDx=0;entryDy=0;fontSize=14;" edge="1" parent="1" source="114" target="120">
                    <mxGeometry relative="1" as="geometry"/>
                </mxCell>
                <mxCell id="126" style="edgeStyle=orthogonalEdgeStyle;html=1;exitX=0.5;exitY=1;exitDx=0;exitDy=0;fontSize=14;" edge="1" parent="1" source="114" target="121">
                    <mxGeometry relative="1" as="geometry"/>
                </mxCell>
                <mxCell id="128" style="edgeStyle=orthogonalEdgeStyle;html=1;exitX=0.5;exitY=1;exitDx=0;exitDy=0;entryX=0;entryY=0.5;entryDx=0;entryDy=0;fontSize=14;" edge="1" parent="1" source="114" target="122">
                    <mxGeometry relative="1" as="geometry"/>
                </mxCell>
                <mxCell id="129" style="edgeStyle=orthogonalEdgeStyle;html=1;exitX=0.5;exitY=1;exitDx=0;exitDy=0;entryX=0;entryY=0.5;entryDx=0;entryDy=0;fontSize=14;" edge="1" parent="1" source="114" target="124">
                    <mxGeometry relative="1" as="geometry"/>
                </mxCell>
                <mxCell id="132" style="edgeStyle=orthogonalEdgeStyle;html=1;exitX=0.5;exitY=1;exitDx=0;exitDy=0;entryX=0;entryY=0.5;entryDx=0;entryDy=0;fontSize=14;" edge="1" parent="1" source="114" target="123">
                    <mxGeometry relative="1" as="geometry"/>
                </mxCell>
                <mxCell id="114" value="&lt;font style=&quot;font-size: 14px&quot;&gt;动态模块&lt;br&gt;&lt;/font&gt;" style="whiteSpace=wrap;html=1;labelBackgroundColor=none;labelBorderColor=none;rounded=1;sketch=1;glass=0;shadow=1;" vertex="1" parent="1">
                    <mxGeometry x="-141" y="-53" width="120" height="60" as="geometry"/>
                </mxCell>
                <mxCell id="142" style="edgeStyle=orthogonalEdgeStyle;html=1;exitX=0.5;exitY=1;exitDx=0;exitDy=0;entryX=0;entryY=0.5;entryDx=0;entryDy=0;fontSize=14;" edge="1" parent="1" source="115" target="139">
                    <mxGeometry relative="1" as="geometry"/>
                </mxCell>
                <mxCell id="143" style="edgeStyle=orthogonalEdgeStyle;html=1;exitX=0.5;exitY=1;exitDx=0;exitDy=0;entryX=0;entryY=0.5;entryDx=0;entryDy=0;fontSize=14;" edge="1" parent="1" source="115" target="140">
                    <mxGeometry relative="1" as="geometry"/>
                </mxCell>
                <mxCell id="144" style="edgeStyle=orthogonalEdgeStyle;html=1;exitX=0.5;exitY=1;exitDx=0;exitDy=0;entryX=0;entryY=0.5;entryDx=0;entryDy=0;fontSize=14;" edge="1" parent="1" source="115" target="141">
                    <mxGeometry relative="1" as="geometry"/>
                </mxCell>
                <mxCell id="146" style="edgeStyle=orthogonalEdgeStyle;html=1;exitX=0.5;exitY=1;exitDx=0;exitDy=0;fontSize=14;" edge="1" parent="1" source="115" target="145">
                    <mxGeometry relative="1" as="geometry"/>
                </mxCell>
                <mxCell id="115" value="个人信息模块" style="whiteSpace=wrap;html=1;rounded=1;shadow=1;glass=0;labelBackgroundColor=none;labelBorderColor=none;sketch=1;fontSize=14;" vertex="1" parent="1">
                    <mxGeometry x="211" y="-53" width="120" height="60" as="geometry"/>
                </mxCell>
                <mxCell id="136" style="edgeStyle=orthogonalEdgeStyle;html=1;exitX=0.5;exitY=1;exitDx=0;exitDy=0;fontSize=14;" edge="1" parent="1" source="116" target="133">
                    <mxGeometry relative="1" as="geometry"/>
                </mxCell>
                <mxCell id="137" style="edgeStyle=orthogonalEdgeStyle;html=1;exitX=0.5;exitY=1;exitDx=0;exitDy=0;entryX=0;entryY=0.5;entryDx=0;entryDy=0;fontSize=14;" edge="1" parent="1" source="116" target="134">
                    <mxGeometry relative="1" as="geometry"/>
                </mxCell>
                <mxCell id="138" style="edgeStyle=orthogonalEdgeStyle;html=1;exitX=0.5;exitY=1;exitDx=0;exitDy=0;fontSize=14;" edge="1" parent="1" source="116" target="135">
                    <mxGeometry relative="1" as="geometry"/>
                </mxCell>
                <mxCell id="116" value="登录注册模块" style="whiteSpace=wrap;html=1;rounded=1;shadow=1;glass=0;labelBackgroundColor=none;labelBorderColor=none;sketch=1;fontSize=14;" vertex="1" parent="1">
                    <mxGeometry x="-456.5" y="-53" width="120" height="60" as="geometry"/>
                </mxCell>
                <mxCell id="120" value="搜&lt;br&gt;索&lt;br&gt;动&lt;br&gt;态" style="whiteSpace=wrap;html=1;rounded=1;shadow=1;glass=0;labelBackgroundColor=none;labelBorderColor=none;sketch=1;fontSize=14;direction=south;" vertex="1" parent="1">
                    <mxGeometry x="-268.5" y="66" width="60" height="120" as="geometry"/>
                </mxCell>
                <mxCell id="121" value="发&lt;br&gt;表&lt;br&gt;动&lt;br&gt;态" style="whiteSpace=wrap;html=1;rounded=1;shadow=1;glass=0;labelBackgroundColor=none;labelBorderColor=none;sketch=1;fontSize=14;direction=south;" vertex="1" parent="1">
                    <mxGeometry x="-189.5" y="66" width="60" height="120" as="geometry"/>
                </mxCell>
                <mxCell id="122" value="评&lt;br&gt;论&lt;br&gt;动&lt;br&gt;态" style="whiteSpace=wrap;html=1;rounded=1;shadow=1;glass=0;labelBackgroundColor=none;labelBorderColor=none;sketch=1;fontSize=14;direction=south;" vertex="1" parent="1">
                    <mxGeometry x="-32.5" y="66" width="60" height="120" as="geometry"/>
                </mxCell>
                <mxCell id="123" value="点&lt;br&gt;赞&lt;br&gt;动&lt;br&gt;态" style="whiteSpace=wrap;html=1;rounded=1;shadow=1;glass=0;labelBackgroundColor=none;labelBorderColor=none;sketch=1;fontSize=14;direction=south;" vertex="1" parent="1">
                    <mxGeometry x="-111.5" y="66" width="60" height="120" as="geometry"/>
                </mxCell>
                <mxCell id="124" value="收&lt;br&gt;藏&lt;br&gt;动&lt;br&gt;态" style="whiteSpace=wrap;html=1;rounded=1;shadow=1;glass=0;labelBackgroundColor=none;labelBorderColor=none;sketch=1;fontSize=14;direction=south;" vertex="1" parent="1">
                    <mxGeometry x="45.5" y="66" width="60" height="120" as="geometry"/>
                </mxCell>
                <mxCell id="133" value="登&lt;br&gt;录" style="whiteSpace=wrap;html=1;rounded=1;shadow=1;glass=0;labelBackgroundColor=none;labelBorderColor=none;sketch=1;fontSize=14;direction=south;" vertex="1" parent="1">
                    <mxGeometry x="-503.5" y="66" width="60" height="120" as="geometry"/>
                </mxCell>
                <mxCell id="134" value="注&lt;br&gt;册" style="whiteSpace=wrap;html=1;rounded=1;shadow=1;glass=0;labelBackgroundColor=none;labelBorderColor=none;sketch=1;fontSize=14;direction=south;" vertex="1" parent="1">
                    <mxGeometry x="-426.5" y="66" width="60" height="120" as="geometry"/>
                </mxCell>
                <mxCell id="135" value="找&lt;br&gt;回&lt;br&gt;密&lt;br&gt;码" style="whiteSpace=wrap;html=1;rounded=1;shadow=1;glass=0;labelBackgroundColor=none;labelBorderColor=none;sketch=1;fontSize=14;direction=south;" vertex="1" parent="1">
                    <mxGeometry x="-349.5" y="66" width="60" height="120" as="geometry"/>
                </mxCell>
                <mxCell id="139" value="上&lt;br&gt;传&lt;br&gt;头&lt;br&gt;像" style="whiteSpace=wrap;html=1;rounded=1;shadow=1;glass=0;labelBackgroundColor=none;labelBorderColor=none;sketch=1;fontSize=14;direction=south;" vertex="1" parent="1">
                    <mxGeometry x="123.5" y="66" width="60" height="120" as="geometry"/>
                </mxCell>
                <mxCell id="140" value="编&lt;br&gt;辑&lt;br&gt;资&lt;br&gt;料" style="whiteSpace=wrap;html=1;rounded=1;shadow=1;glass=0;labelBackgroundColor=none;labelBorderColor=none;sketch=1;fontSize=14;direction=south;" vertex="1" parent="1">
                    <mxGeometry x="201.5" y="66" width="60" height="120" as="geometry"/>
                </mxCell>
                <mxCell id="141" value="注&lt;br&gt;销&lt;br&gt;账&lt;br&gt;号" style="whiteSpace=wrap;html=1;rounded=1;shadow=1;glass=0;labelBackgroundColor=none;labelBorderColor=none;sketch=1;fontSize=14;direction=south;" vertex="1" parent="1">
                    <mxGeometry x="279.5" y="66" width="60" height="120" as="geometry"/>
                </mxCell>
                <mxCell id="145" value="关&lt;br&gt;注" style="whiteSpace=wrap;html=1;rounded=1;shadow=1;glass=0;labelBackgroundColor=none;labelBorderColor=none;sketch=1;fontSize=14;direction=south;" vertex="1" parent="1">
                    <mxGeometry x="357" y="66" width="60" height="120" as="geometry"/>
                </mxCell>
            </root>
        </mxGraphModel>
    </diagram>
</mxfile>